STARTFONT 2.1
FONT -Linotype-Times-Bold-I-Normal--12-120-72-72-P-63-ISO8859-1
SIZE 12 72 72
FONTBOUNDINGBOX 15 16 -3 -3

STARTPROPERTIES 22
FONTNAME_REGISTRY "-"
FOUNDRY "Linotype"
FAMILY_NAME "Times"
WEIGHT_NAME "Bold"
SLANT "I"
SETWIDTH_NAME "Normal"
ADD_STYLE_NAME ""
PIXEL_SIZE 12
POINT_SIZE 120
RESOLUTION_X 72
RESOLUTION_Y 72
SPACING "P"
CHARSET_REGISTRY "ISO8859"
CHARSET_ENCODING "1"
FULL_NAME "Times-BoldItalic"
AVERAGE_WIDTH 63
WEIGHT 10
X_HEIGHT 6
QUAD_WIDTH 7
DEFAULT_CHAR 32
FONT_DESCENT 3
FONT_ASCENT 11
ENDPROPERTIES

CHARS 190

STARTCHAR space
ENCODING 32
SWIDTH 250 0
DWIDTH 3 0
BBX 1 1 0 0
BITMAP
00
ENDCHAR

STARTCHAR exclam
ENCODING 33
SWIDTH 389 0
DWIDTH 5 0
BBX 4 9 1 0
BITMAP
30
30
20
60
60
40
40
C0
C0
ENDCHAR

STARTCHAR quotedbl
ENCODING 34
SWIDTH 555 0
DWIDTH 7 0
BBX 5 4 2 5
BITMAP
D8
D8
90
90
ENDCHAR

STARTCHAR numbersign
ENCODING 35
SWIDTH 500 0
DWIDTH 6 0
BBX 6 9 0 0
BITMAP
28
28
7C
48
48
F8
50
50
50
ENDCHAR

STARTCHAR dollar
ENCODING 36
SWIDTH 500 0
DWIDTH 6 0
BBX 6 11 0 -1
BITMAP
08
3C
54
74
70
30
38
A8
A8
70
40
ENDCHAR

STARTCHAR percent
ENCODING 37
SWIDTH 833 0
DWIDTH 10 0
BBX 8 9 1 0
BITMAP
72
DC
D4
D8
EF
1D
1D
1D
2E
ENDCHAR

STARTCHAR ampersand
ENCODING 38
SWIDTH 778 0
DWIDTH 9 0
BBX 8 9 0 0
BITMAP
0C
12
14
18
33
DB
DE
CC
77
ENDCHAR

STARTCHAR quoteright
ENCODING 39
SWIDTH 333 0
DWIDTH 4 0
BBX 2 4 1 5
BITMAP
40
40
40
80
ENDCHAR

STARTCHAR parenleft
ENCODING 40
SWIDTH 333 0
DWIDTH 4 0
BBX 4 12 0 -3
BITMAP
10
20
40
40
C0
80
80
80
80
80
40
40
ENDCHAR

STARTCHAR parenright
ENCODING 41
SWIDTH 333 0
DWIDTH 4 0
BBX 4 12 0 -3
BITMAP
20
20
20
10
10
10
30
30
20
60
40
80
ENDCHAR

STARTCHAR asterisk
ENCODING 42
SWIDTH 500 0
DWIDTH 6 0
BBX 5 5 1 3
BITMAP
20
F8
20
F8
20
ENDCHAR

STARTCHAR plus
ENCODING 43
SWIDTH 570 0
DWIDTH 7 0
BBX 5 5 1 0
BITMAP
20
20
F8
20
20
ENDCHAR

STARTCHAR comma
ENCODING 44
SWIDTH 250 0
DWIDTH 3 0
BBX 2 4 0 -3
BITMAP
40
40
40
80
ENDCHAR

STARTCHAR minus
ENCODING 45
SWIDTH 606 0
DWIDTH 7 0
BBX 6 1 1 2
BITMAP
FC
ENDCHAR

STARTCHAR period
ENCODING 46
SWIDTH 250 0
DWIDTH 3 0
BBX 2 2 0 0
BITMAP
C0
C0
ENDCHAR

STARTCHAR slash
ENCODING 47
SWIDTH 278 0
DWIDTH 3 0
BBX 4 8 0 0
BITMAP
30
20
20
60
40
40
80
80
ENDCHAR

STARTCHAR zero
ENCODING 48
SWIDTH 500 0
DWIDTH 6 0
BBX 5 9 0 0
BITMAP
38
68
48
C8
C8
D8
98
90
60
ENDCHAR

STARTCHAR one
ENCODING 49
SWIDTH 500 0
DWIDTH 6 0
BBX 5 9 0 0
BITMAP
18
38
10
10
30
30
20
60
F0
ENDCHAR

STARTCHAR two
ENCODING 50
SWIDTH 500 0
DWIDTH 6 0
BBX 6 9 0 0
BITMAP
38
4C
0C
08
18
30
28
78
F8
ENDCHAR

STARTCHAR three
ENCODING 51
SWIDTH 500 0
DWIDTH 6 0
BBX 6 9 0 0
BITMAP
38
48
0C
10
38
18
08
D0
E0
ENDCHAR

STARTCHAR four
ENCODING 52
SWIDTH 500 0
DWIDTH 6 0
BBX 6 9 0 0
BITMAP
04
0C
1C
28
58
D8
FC
10
30
ENDCHAR

STARTCHAR five
ENCODING 53
SWIDTH 500 0
DWIDTH 6 0
BBX 6 9 0 0
BITMAP
3C
3C
20
60
70
18
08
98
E0
ENDCHAR

STARTCHAR six
ENCODING 54
SWIDTH 500 0
DWIDTH 6 0
BBX 6 9 0 0
BITMAP
0C
30
60
70
D8
D8
98
90
70
ENDCHAR

STARTCHAR seven
ENCODING 55
SWIDTH 500 0
DWIDTH 6 0
BBX 6 9 1 0
BITMAP
7C
78
98
10
30
20
60
40
C0
ENDCHAR

STARTCHAR eight
ENCODING 56
SWIDTH 500 0
DWIDTH 6 0
BBX 6 9 0 0
BITMAP
38
6C
6C
38
30
D8
88
98
70
ENDCHAR

STARTCHAR nine
ENCODING 57
SWIDTH 500 0
DWIDTH 6 0
BBX 6 9 0 0
BITMAP
38
6C
6C
4C
48
78
10
20
C0
ENDCHAR

STARTCHAR colon
ENCODING 58
SWIDTH 333 0
DWIDTH 4 0
BBX 3 6 1 0
BITMAP
60
60
00
00
C0
C0
ENDCHAR

STARTCHAR semicolon
ENCODING 59
SWIDTH 333 0
DWIDTH 4 0
BBX 4 9 0 -3
BITMAP
30
30
00
00
60
60
20
40
80
ENDCHAR

STARTCHAR less
ENCODING 60
SWIDTH 570 0
DWIDTH 7 0
BBX 6 6 0 0
BITMAP
0C
3C
E0
E0
3C
0C
ENDCHAR

STARTCHAR equal
ENCODING 61
SWIDTH 570 0
DWIDTH 7 0
BBX 6 4 0 1
BITMAP
FC
00
00
FC
ENDCHAR

STARTCHAR greater
ENCODING 62
SWIDTH 570 0
DWIDTH 7 0
BBX 6 6 0 0
BITMAP
C0
F0
1C
1C
F0
C0
ENDCHAR

STARTCHAR question
ENCODING 63
SWIDTH 500 0
DWIDTH 6 0
BBX 5 9 1 0
BITMAP
70
D8
58
10
20
40
40
C0
C0
ENDCHAR

STARTCHAR at
ENCODING 64
SWIDTH 832 0
DWIDTH 10 0
BBX 10 12 0 -3
BITMAP
0F00
3080
6040
4D40
DB40
DB40
D340
D280
DF80
4000
2000
1F00
ENDCHAR

STARTCHAR A
ENCODING 65
SWIDTH 667 0
DWIDTH 8 0
BBX 9 9 0 0
BITMAP
0200
0600
0600
0E00
1300
3F00
2300
4300
E780
ENDCHAR

STARTCHAR B
ENCODING 66
SWIDTH 667 0
DWIDTH 8 0
BBX 8 9 0 0
BITMAP
3E
33
33
37
3E
66
66
66
FC
ENDCHAR

STARTCHAR C
ENCODING 67
SWIDTH 667 0
DWIDTH 8 0
BBX 8 9 0 0
BITMAP
1F
32
62
C0
C0
C0
C0
C6
78
ENDCHAR

STARTCHAR D
ENCODING 68
SWIDTH 722 0
DWIDTH 9 0
BBX 9 9 0 0
BITMAP
3E00
3300
3180
3180
3180
6300
6300
6600
FC00
ENDCHAR

STARTCHAR E
ENCODING 69
SWIDTH 667 0
DWIDTH 8 0
BBX 8 9 0 0
BITMAP
3F
31
31
36
3C
64
64
62
FE
ENDCHAR

STARTCHAR F
ENCODING 70
SWIDTH 667 0
DWIDTH 8 0
BBX 8 9 0 0
BITMAP
3F
31
31
36
3C
64
64
60
F0
ENDCHAR

STARTCHAR G
ENCODING 71
SWIDTH 722 0
DWIDTH 9 0
BBX 8 9 0 0
BITMAP
1F
31
61
C0
C7
C2
C6
46
3C
ENDCHAR

STARTCHAR H
ENCODING 72
SWIDTH 778 0
DWIDTH 9 0
BBX 10 9 0 0
BITMAP
3BC0
3180
3180
3100
3F00
6300
6300
6600
F700
ENDCHAR

STARTCHAR I
ENCODING 73
SWIDTH 389 0
DWIDTH 5 0
BBX 5 9 0 0
BITMAP
38
30
30
30
30
60
60
60
F0
ENDCHAR

STARTCHAR J
ENCODING 74
SWIDTH 500 0
DWIDTH 6 0
BBX 7 10 0 -1
BITMAP
1E
0C
0C
08
18
18
18
30
B0
E0
ENDCHAR

STARTCHAR K
ENCODING 75
SWIDTH 667 0
DWIDTH 8 0
BBX 9 9 0 0
BITMAP
3B80
3B00
3600
3C00
2800
6C00
6C00
6600
FF00
ENDCHAR

STARTCHAR L
ENCODING 76
SWIDTH 611 0
DWIDTH 7 0
BBX 7 9 0 0
BITMAP
38
30
30
30
30
60
62
62
FE
ENDCHAR

STARTCHAR M
ENCODING 77
SWIDTH 889 0
DWIDTH 11 0
BBX 11 9 0 0
BITMAP
30E0
18C0
39C0
3BC0
5AC0
5D80
5D80
4980
CBC0
ENDCHAR

STARTCHAR N
ENCODING 78
SWIDTH 722 0
DWIDTH 9 0
BBX 9 9 0 0
BITMAP
3180
3880
3900
2900
4D00
4D00
4600
C600
C200
ENDCHAR

STARTCHAR O
ENCODING 79
SWIDTH 722 0
DWIDTH 9 0
BBX 8 9 0 0
BITMAP
1E
33
63
63
C3
C6
C6
CC
78
ENDCHAR

STARTCHAR P
ENCODING 80
SWIDTH 611 0
DWIDTH 7 0
BBX 8 9 0 0
BITMAP
3E
33
33
36
3C
60
60
60
F0
ENDCHAR

STARTCHAR Q
ENCODING 81
SWIDTH 722 0
DWIDTH 9 0
BBX 8 12 0 -3
BITMAP
1E
33
63
63
C3
C6
C6
CC
78
20
71
FE
ENDCHAR

STARTCHAR R
ENCODING 82
SWIDTH 667 0
DWIDTH 8 0
BBX 8 9 0 0
BITMAP
3E
3B
33
2E
2C
6C
6C
66
F7
ENDCHAR

STARTCHAR S
ENCODING 83
SWIDTH 556 0
DWIDTH 7 0
BBX 6 9 0 0
BITMAP
3C
64
64
70
38
18
8C
88
F8
ENDCHAR

STARTCHAR T
ENCODING 84
SWIDTH 611 0
DWIDTH 7 0
BBX 7 9 0 0
BITMAP
FE
9A
B2
30
30
30
60
60
F0
ENDCHAR

STARTCHAR U
ENCODING 85
SWIDTH 722 0
DWIDTH 9 0
BBX 8 9 1 0
BITMAP
F3
63
62
62
C2
C4
C4
CC
78
ENDCHAR

STARTCHAR V
ENCODING 86
SWIDTH 667 0
DWIDTH 8 0
BBX 8 9 1 0
BITMAP
E7
62
62
64
6C
68
30
30
20
ENDCHAR

STARTCHAR W
ENCODING 87
SWIDTH 889 0
DWIDTH 11 0
BBX 10 9 1 0
BITMAP
EEC0
6440
6E80
6E80
6F80
7700
7700
2600
2200
ENDCHAR

STARTCHAR X
ENCODING 88
SWIDTH 667 0
DWIDTH 8 0
BBX 9 9 0 0
BITMAP
7B80
3300
1E00
1C00
1800
1800
2C00
4C00
EE00
ENDCHAR

STARTCHAR Y
ENCODING 89
SWIDTH 611 0
DWIDTH 7 0
BBX 7 9 1 0
BITMAP
EE
64
6C
68
30
30
60
60
F0
ENDCHAR

STARTCHAR Z
ENCODING 90
SWIDTH 611 0
DWIDTH 7 0
BBX 7 9 0 0
BITMAP
3E
46
4C
18
18
30
62
64
FC
ENDCHAR

STARTCHAR bracketleft
ENCODING 91
SWIDTH 333 0
DWIDTH 4 0
BBX 5 12 0 -3
BITMAP
38
20
20
60
60
40
40
40
C0
C0
80
E0
ENDCHAR

STARTCHAR backslash
ENCODING 92
SWIDTH 278 0
DWIDTH 3 0
BBX 6 9 0 0
BITMAP
C0
40
60
20
30
10
18
08
0C
ENDCHAR

STARTCHAR bracketright
ENCODING 93
SWIDTH 333 0
DWIDTH 4 0
BBX 5 12 0 -3
BITMAP
38
18
18
10
10
30
30
30
20
20
60
E0
ENDCHAR

STARTCHAR asciicircum
ENCODING 94
SWIDTH 570 0
DWIDTH 7 0
BBX 6 4 0 4
BITMAP
30
78
48
CC
ENDCHAR

STARTCHAR underscore
ENCODING 95
SWIDTH 500 0
DWIDTH 6 0
BBX 6 1 0 -2
BITMAP
FC
ENDCHAR

STARTCHAR quoteleft
ENCODING 96
SWIDTH 333 0
DWIDTH 4 0
BBX 3 4 1 5
BITMAP
60
80
C0
C0
ENDCHAR

STARTCHAR a
ENCODING 97
SWIDTH 500 0
DWIDTH 6 0
BBX 6 6 0 0
BITMAP
3C
68
C8
D8
D4
F8
ENDCHAR

STARTCHAR b
ENCODING 98
SWIDTH 500 0
DWIDTH 6 0
BBX 5 9 0 0
BITMAP
70
20
60
78
68
48
D8
D0
E0
ENDCHAR

STARTCHAR c
ENCODING 99
SWIDTH 444 0
DWIDTH 5 0
BBX 5 6 0 0
BITMAP
38
58
C0
C0
D0
60
ENDCHAR

STARTCHAR d
ENCODING 100
SWIDTH 500 0
DWIDTH 6 0
BBX 6 9 0 0
BITMAP
0C
04
0C
3C
68
D8
D8
DC
F8
ENDCHAR

STARTCHAR e
ENCODING 101
SWIDTH 444 0
DWIDTH 5 0
BBX 5 6 0 0
BITMAP
30
48
D0
E0
D0
60
ENDCHAR

STARTCHAR f
ENCODING 102
SWIDTH 333 0
DWIDTH 4 0
BBX 7 12 -1 -3
BITMAP
06
0A
18
3C
18
10
10
30
30
30
A0
C0
ENDCHAR

STARTCHAR g
ENCODING 103
SWIDTH 500 0
DWIDTH 6 0
BBX 6 9 0 -3
BITMAP
3C
6C
48
78
40
70
98
88
F0
ENDCHAR

STARTCHAR h
ENCODING 104
SWIDTH 556 0
DWIDTH 7 0
BBX 6 9 0 0
BITMAP
70
30
20
7C
7C
68
48
DC
D8
ENDCHAR

STARTCHAR i
ENCODING 105
SWIDTH 278 0
DWIDTH 3 0
BBX 3 9 0 0
BITMAP
20
20
00
E0
40
40
C0
E0
C0
ENDCHAR

STARTCHAR j
ENCODING 106
SWIDTH 278 0
DWIDTH 3 0
BBX 6 12 -1 -3
BITMAP
08
0C
00
18
18
18
10
10
30
30
A0
E0
ENDCHAR

STARTCHAR k
ENCODING 107
SWIDTH 500 0
DWIDTH 6 0
BBX 6 9 0 0
BITMAP
70
20
20
7C
68
50
70
DC
D8
ENDCHAR

STARTCHAR l
ENCODING 108
SWIDTH 278 0
DWIDTH 3 0
BBX 3 9 0 0
BITMAP
60
20
60
60
40
C0
C0
E0
C0
ENDCHAR

STARTCHAR m
ENCODING 109
SWIDTH 778 0
DWIDTH 9 0
BBX 9 6 0 0
BITMAP
7B00
5B00
6D00
5B00
DA80
DB00
ENDCHAR

STARTCHAR n
ENCODING 110
SWIDTH 556 0
DWIDTH 7 0
BBX 6 6 0 0
BITMAP
EC
7C
68
58
DC
D8
ENDCHAR

STARTCHAR o
ENCODING 111
SWIDTH 500 0
DWIDTH 6 0
BBX 5 6 0 0
BITMAP
38
48
C8
D8
90
60
ENDCHAR

STARTCHAR p
ENCODING 112
SWIDTH 500 0
DWIDTH 6 0
BBX 7 9 0 -3
BITMAP
3C
36
36
24
6C
78
60
40
E0
ENDCHAR

STARTCHAR q
ENCODING 113
SWIDTH 500 0
DWIDTH 6 0
BBX 6 9 0 -3
BITMAP
3C
68
D8
D8
D0
F0
30
30
70
ENDCHAR

STARTCHAR r
ENCODING 114
SWIDTH 389 0
DWIDTH 5 0
BBX 5 6 0 0
BITMAP
78
78
60
40
C0
C0
ENDCHAR

STARTCHAR s
ENCODING 115
SWIDTH 389 0
DWIDTH 5 0
BBX 4 6 0 0
BITMAP
70
40
60
20
B0
E0
ENDCHAR

STARTCHAR t
ENCODING 116
SWIDTH 278 0
DWIDTH 3 0
BBX 3 8 0 0
BITMAP
20
20
E0
40
40
C0
E0
C0
ENDCHAR

STARTCHAR u
ENCODING 117
SWIDTH 556 0
DWIDTH 7 0
BBX 6 6 1 0
BITMAP
EC
48
58
D8
FC
D8
ENDCHAR

STARTCHAR v
ENCODING 118
SWIDTH 444 0
DWIDTH 5 0
BBX 5 6 1 0
BITMAP
D8
48
50
60
60
40
ENDCHAR

STARTCHAR w
ENCODING 119
SWIDTH 667 0
DWIDTH 8 0
BBX 7 6 1 0
BITMAP
CA
5A
5A
7C
78
48
ENDCHAR

STARTCHAR x
ENCODING 120
SWIDTH 500 0
DWIDTH 6 0
BBX 6 6 0 0
BITMAP
6C
30
30
30
D8
D8
ENDCHAR

STARTCHAR y
ENCODING 121
SWIDTH 444 0
DWIDTH 5 0
BBX 6 9 0 -3
BITMAP
6C
34
34
38
38
10
10
A0
C0
ENDCHAR

STARTCHAR z
ENCODING 122
SWIDTH 389 0
DWIDTH 5 0
BBX 5 6 0 0
BITMAP
78
50
20
20
68
B8
ENDCHAR

STARTCHAR braceleft
ENCODING 123
SWIDTH 348 0
DWIDTH 4 0
BBX 4 12 0 -3
BITMAP
30
20
20
60
60
40
C0
40
C0
80
80
C0
ENDCHAR

STARTCHAR bar
ENCODING 124
SWIDTH 220 0
DWIDTH 3 0
BBX 1 8 1 0
BITMAP
80
80
80
80
80
80
80
80
ENDCHAR

STARTCHAR braceright
ENCODING 125
SWIDTH 348 0
DWIDTH 4 0
BBX 4 12 0 -3
BITMAP
30
10
10
10
30
30
30
20
60
60
40
C0
ENDCHAR

STARTCHAR asciitilde
ENCODING 126
SWIDTH 570 0
DWIDTH 7 0
BBX 6 2 0 3
BITMAP
74
9C
ENDCHAR

STARTCHAR exclamdown
ENCODING 161
SWIDTH 389 0
DWIDTH 5 0
BBX 4 8 0 -2
BITMAP
20
30
20
40
40
C0
C0
C0
ENDCHAR

STARTCHAR cent
ENCODING 162
SWIDTH 500 0
DWIDTH 6 0
BBX 5 8 1 1
BITMAP
10
30
58
D8
E0
F0
F0
40
ENDCHAR

STARTCHAR sterling
ENCODING 163
SWIDTH 500 0
DWIDTH 6 0
BBX 6 9 0 0
BITMAP
0C
14
10
30
78
30
EC
A8
D8
ENDCHAR

STARTCHAR currency
ENCODING 164
SWIDTH 500 0
DWIDTH 6 0
BBX 7 7 0 1
BITMAP
C6
7E
44
44
44
FE
C2
ENDCHAR

STARTCHAR yen
ENCODING 165
SWIDTH 500 0
DWIDTH 6 0
BBX 7 9 0 0
BITMAP
EE
64
6C
68
30
F8
20
F0
F0
ENDCHAR

STARTCHAR brokenbar
ENCODING 166
SWIDTH 220 0
DWIDTH 3 0
BBX 1 9 1 0
BITMAP
80
80
80
80
00
80
80
80
80
ENDCHAR

STARTCHAR section
ENCODING 167
SWIDTH 500 0
DWIDTH 6 0
BBX 5 11 0 -2
BITMAP
38
28
28
60
90
48
48
30
90
90
60
ENDCHAR

STARTCHAR dieresis
ENCODING 168
SWIDTH 333 0
DWIDTH 4 0
BBX 5 2 1 6
BITMAP
D8
D8
ENDCHAR

STARTCHAR copyright
ENCODING 169
SWIDTH 747 0
DWIDTH 9 0
BBX 9 9 0 0
BITMAP
3E00
6300
DD80
A480
A080
A480
D980
6300
3E00
ENDCHAR

STARTCHAR ordfeminine
ENCODING 170
SWIDTH 266 0
DWIDTH 3 0
BBX 4 5 0 4
BITMAP
70
E0
B0
E0
E0
ENDCHAR

STARTCHAR guillemotleft
ENCODING 171
SWIDTH 500 0
DWIDTH 6 0
BBX 5 5 0 -1
BITMAP
28
78
D0
50
08
ENDCHAR

STARTCHAR logicalnot
ENCODING 172
SWIDTH 606 0
DWIDTH 7 0
BBX 6 3 1 1
BITMAP
FC
04
04
ENDCHAR

STARTCHAR hyphen
ENCODING 173
SWIDTH 333 0
DWIDTH 4 0
BBX 3 2 0 2
BITMAP
E0
E0
ENDCHAR

STARTCHAR registered
ENCODING 174
SWIDTH 747 0
DWIDTH 9 0
BBX 9 9 0 0
BITMAP
3E00
6300
FD80
9480
9880
9C80
FF80
6300
3E00
ENDCHAR

STARTCHAR macron
ENCODING 175
SWIDTH 333 0
DWIDTH 4 0
BBX 4 1 1 6
BITMAP
F0
ENDCHAR

STARTCHAR degree
ENCODING 176
SWIDTH 400 0
DWIDTH 6 0
BBX 4 4 1 5
BITMAP
60
90
90
60
ENDCHAR

STARTCHAR plusminus
ENCODING 177
SWIDTH 570 0
DWIDTH 7 0
BBX 5 8 1 0
BITMAP
20
20
F8
20
20
20
00
F8
ENDCHAR

STARTCHAR twosuperior
ENCODING 178
SWIDTH 300 0
DWIDTH 4 0
BBX 3 5 -3 4
BITMAP
60
E0
20
60
E0
ENDCHAR

STARTCHAR threesuperior
ENCODING 179
SWIDTH 300 0
DWIDTH 4 0
BBX 3 5 -3 4
BITMAP
60
20
60
20
C0
ENDCHAR

STARTCHAR acute
ENCODING 180
SWIDTH 333 0
DWIDTH 4 0
BBX 3 2 2 6
BITMAP
60
C0
ENDCHAR

STARTCHAR mu
ENCODING 181
SWIDTH 576 0
DWIDTH 7 0
BBX 7 8 0 -2
BITMAP
76
24
2C
6C
7E
6C
80
80
ENDCHAR

STARTCHAR paragraph
ENCODING 182
SWIDTH 500 0
DWIDTH 6 0
BBX 6 12 1 -3
BITMAP
3C
78
E8
E8
F8
F0
50
50
50
60
A0
A0
ENDCHAR

STARTCHAR periodcentered
ENCODING 183
SWIDTH 250 0
DWIDTH 6 0
BBX 2 2 2 3
BITMAP
C0
C0
ENDCHAR

STARTCHAR cedilla
ENCODING 184
SWIDTH 333 0
DWIDTH 4 0
BBX 3 3 0 -2
BITMAP
40
60
E0
ENDCHAR

STARTCHAR onesuperior
ENCODING 185
SWIDTH 300 0
DWIDTH 4 0
BBX 3 5 -3 4
BITMAP
60
40
40
40
C0
ENDCHAR

STARTCHAR ordmasculine
ENCODING 186
SWIDTH 300 0
DWIDTH 4 0
BBX 4 5 0 4
BITMAP
60
50
A0
E0
E0
ENDCHAR

STARTCHAR guillemotright
ENCODING 187
SWIDTH 500 0
DWIDTH 6 0
BBX 5 6 0 0
BITMAP
50
50
28
78
D0
A0
ENDCHAR

STARTCHAR onequarter
ENCODING 188
SWIDTH 750 0
DWIDTH 9 0
BBX 9 9 0 0
BITMAP
6100
4200
4600
4400
CD80
0B00
1700
1700
2200
ENDCHAR

STARTCHAR onehalf
ENCODING 189
SWIDTH 750 0
DWIDTH 9 0
BBX 8 9 0 0
BITMAP
61
42
46
44
CF
0F
11
13
27
ENDCHAR

STARTCHAR threequarters
ENCODING 190
SWIDTH 750 0
DWIDTH 9 0
BBX 9 9 0 0
BITMAP
6100
2200
6600
2400
CD80
0B00
1700
1700
2200
ENDCHAR

STARTCHAR questiondown
ENCODING 191
SWIDTH 500 0
DWIDTH 6 0
BBX 5 8 0 -2
BITMAP
18
18
10
20
40
D0
D0
70
ENDCHAR

STARTCHAR Agrave
ENCODING 192
SWIDTH 667 0
DWIDTH 8 0
BBX 9 12 0 0
BITMAP
0400
0300
0000
0200
0600
0600
0E00
1300
3F00
2300
4300
E780
ENDCHAR

STARTCHAR Aacute
ENCODING 193
SWIDTH 667 0
DWIDTH 8 0
BBX 9 12 0 0
BITMAP
0180
0300
0000
0200
0600
0600
0E00
1300
3F00
2300
4300
E780
ENDCHAR

STARTCHAR Acircumflex
ENCODING 194
SWIDTH 667 0
DWIDTH 8 0
BBX 9 12 0 0
BITMAP
0600
0900
0000
0200
0600
0600
0E00
1300
3F00
2300
4300
E780
ENDCHAR

STARTCHAR Atilde
ENCODING 195
SWIDTH 667 0
DWIDTH 8 0
BBX 9 12 0 0
BITMAP
0F00
0B00
0000
0200
0600
0600
0E00
1300
3F00
2300
4300
E780
ENDCHAR

STARTCHAR Adieresis
ENCODING 196
SWIDTH 667 0
DWIDTH 8 0
BBX 9 12 0 0
BITMAP
0D80
0D80
0000
0200
0600
0600
0E00
1300
3F00
2300
4300
E780
ENDCHAR

STARTCHAR Aring
ENCODING 197
SWIDTH 667 0
DWIDTH 8 0
BBX 9 13 0 0
BITMAP
0700
0500
0700
0000
0200
0600
0600
0E00
1300
3F00
2300
4300
E780
ENDCHAR

STARTCHAR AE
ENCODING 198
SWIDTH 944 0
DWIDTH 11 0
BBX 12 9 0 0
BITMAP
07F0
0720
0B20
0B40
13C0
1E40
2660
4660
CFC0
ENDCHAR

STARTCHAR Ccedilla
ENCODING 199
SWIDTH 667 0
DWIDTH 8 0
BBX 8 12 0 -3
BITMAP
1F
32
62
C0
C0
C0
C0
C6
78
10
18
38
ENDCHAR

STARTCHAR Egrave
ENCODING 200
SWIDTH 667 0
DWIDTH 8 0
BBX 8 12 0 0
BITMAP
08
06
00
3F
31
31
36
3C
64
64
62
FE
ENDCHAR

STARTCHAR Eacute
ENCODING 201
SWIDTH 667 0
DWIDTH 8 0
BBX 8 12 0 0
BITMAP
03
06
00
3F
31
31
36
3C
64
64
62
FE
ENDCHAR

STARTCHAR Ecircumflex
ENCODING 202
SWIDTH 667 0
DWIDTH 8 0
BBX 8 12 0 0
BITMAP
06
09
00
3F
31
31
36
3C
64
64
62
FE
ENDCHAR

STARTCHAR Edieresis
ENCODING 203
SWIDTH 667 0
DWIDTH 8 0
BBX 8 12 0 0
BITMAP
1B
1B
00
3F
31
31
36
3C
64
64
62
FE
ENDCHAR

STARTCHAR Igrave
ENCODING 204
SWIDTH 389 0
DWIDTH 5 0
BBX 5 12 0 0
BITMAP
20
18
00
38
30
30
30
30
60
60
60
F0
ENDCHAR

STARTCHAR Iacute
ENCODING 205
SWIDTH 389 0
DWIDTH 5 0
BBX 6 12 0 0
BITMAP
0C
18
00
38
30
30
30
30
60
60
60
F0
ENDCHAR

STARTCHAR Icircumflex
ENCODING 206
SWIDTH 389 0
DWIDTH 5 0
BBX 6 12 0 0
BITMAP
18
24
00
38
30
30
30
30
60
60
60
F0
ENDCHAR

STARTCHAR Idieresis
ENCODING 207
SWIDTH 389 0
DWIDTH 5 0
BBX 7 12 0 0
BITMAP
36
36
00
38
30
30
30
30
60
60
60
F0
ENDCHAR

STARTCHAR Eth
ENCODING 208
SWIDTH 722 0
DWIDTH 9 0
BBX 9 9 0 0
BITMAP
3E00
3300
3180
3180
7980
6300
6300
6600
FC00
ENDCHAR

STARTCHAR Ntilde
ENCODING 209
SWIDTH 722 0
DWIDTH 9 0
BBX 9 12 0 0
BITMAP
0F00
0B00
0000
3180
3880
3900
2900
4D00
4D00
4600
C600
C200
ENDCHAR

STARTCHAR Ograve
ENCODING 210
SWIDTH 722 0
DWIDTH 9 0
BBX 8 12 0 0
BITMAP
08
06
00
1E
33
63
63
C3
C6
C6
CC
78
ENDCHAR

STARTCHAR Oacute
ENCODING 211
SWIDTH 722 0
DWIDTH 9 0
BBX 8 12 0 0
BITMAP
06
0C
00
1E
33
63
63
C3
C6
C6
CC
78
ENDCHAR

STARTCHAR Ocircumflex
ENCODING 212
SWIDTH 722 0
DWIDTH 9 0
BBX 8 12 0 0
BITMAP
0C
12
00
1E
33
63
63
C3
C6
C6
CC
78
ENDCHAR

STARTCHAR Otilde
ENCODING 213
SWIDTH 722 0
DWIDTH 9 0
BBX 8 12 0 0
BITMAP
1E
16
00
1E
33
63
63
C3
C6
C6
CC
78
ENDCHAR

STARTCHAR Odieresis
ENCODING 214
SWIDTH 722 0
DWIDTH 9 0
BBX 8 12 0 0
BITMAP
1B
1B
00
1E
33
63
63
C3
C6
C6
CC
78
ENDCHAR

STARTCHAR multiply
ENCODING 215
SWIDTH 570 0
DWIDTH 7 0
BBX 6 5 1 0
BITMAP
88
5C
30
78
CC
ENDCHAR

STARTCHAR Oslash
ENCODING 216
SWIDTH 722 0
DWIDTH 9 0
BBX 8 10 0 0
BITMAP
03
1E
37
67
6B
DB
D6
E6
EC
78
ENDCHAR

STARTCHAR Ugrave
ENCODING 217
SWIDTH 722 0
DWIDTH 9 0
BBX 8 12 1 0
BITMAP
10
0C
00
F3
63
62
62
C2
C4
C4
CC
78
ENDCHAR

STARTCHAR Uacute
ENCODING 218
SWIDTH 722 0
DWIDTH 9 0
BBX 8 12 1 0
BITMAP
06
0C
00
F3
63
62
62
C2
C4
C4
CC
78
ENDCHAR

STARTCHAR Ucircumflex
ENCODING 219
SWIDTH 722 0
DWIDTH 9 0
BBX 8 12 1 0
BITMAP
0C
12
00
F3
63
62
62
C2
C4
C4
CC
78
ENDCHAR

STARTCHAR Udieresis
ENCODING 220
SWIDTH 722 0
DWIDTH 9 0
BBX 8 12 1 0
BITMAP
36
36
00
F3
63
62
62
C2
C4
C4
CC
78
ENDCHAR

STARTCHAR Yacute
ENCODING 221
SWIDTH 611 0
DWIDTH 7 0
BBX 7 12 1 0
BITMAP
0C
18
00
EE
64
6C
68
30
30
60
60
F0
ENDCHAR

STARTCHAR Thorn
ENCODING 222
SWIDTH 611 0
DWIDTH 7 0
BBX 7 9 0 0
BITMAP
38
10
3E
36
36
66
7C
60
F0
ENDCHAR

STARTCHAR germandbls
ENCODING 223
SWIDTH 500 0
DWIDTH 6 0
BBX 8 12 -1 -3
BITMAP
06
09
0B
1E
1A
13
12
36
3C
30
A0
C0
ENDCHAR

STARTCHAR agrave
ENCODING 224
SWIDTH 500 0
DWIDTH 6 0
BBX 6 9 0 0
BITMAP
20
18
00
3C
68
C8
D8
D4
F8
ENDCHAR

STARTCHAR aacute
ENCODING 225
SWIDTH 500 0
DWIDTH 6 0
BBX 6 9 0 0
BITMAP
0C
18
00
3C
68
C8
D8
D4
F8
ENDCHAR

STARTCHAR acircumflex
ENCODING 226
SWIDTH 500 0
DWIDTH 6 0
BBX 6 9 0 0
BITMAP
18
24
00
3C
68
C8
D8
D4
F8
ENDCHAR

STARTCHAR atilde
ENCODING 227
SWIDTH 500 0
DWIDTH 6 0
BBX 6 9 0 0
BITMAP
3C
2C
00
3C
68
C8
D8
D4
F8
ENDCHAR

STARTCHAR adieresis
ENCODING 228
SWIDTH 500 0
DWIDTH 6 0
BBX 7 9 0 0
BITMAP
36
36
00
3C
68
C8
D8
D4
F8
ENDCHAR

STARTCHAR aring
ENCODING 229
SWIDTH 500 0
DWIDTH 6 0
BBX 6 10 0 0
BITMAP
38
28
38
00
3C
68
C8
D8
D4
F8
ENDCHAR

STARTCHAR ae
ENCODING 230
SWIDTH 722 0
DWIDTH 9 0
BBX 8 6 0 0
BITMAP
3F
6D
CB
DC
DB
EE
ENDCHAR

STARTCHAR ccedilla
ENCODING 231
SWIDTH 444 0
DWIDTH 5 0
BBX 5 9 0 -3
BITMAP
38
58
C0
C0
D0
60
20
30
70
ENDCHAR

STARTCHAR egrave
ENCODING 232
SWIDTH 444 0
DWIDTH 5 0
BBX 5 9 0 0
BITMAP
20
18
00
30
48
D0
E0
D0
60
ENDCHAR

STARTCHAR eacute
ENCODING 233
SWIDTH 444 0
DWIDTH 5 0
BBX 5 9 0 0
BITMAP
18
30
00
30
48
D0
E0
D0
60
ENDCHAR

STARTCHAR ecircumflex
ENCODING 234
SWIDTH 444 0
DWIDTH 5 0
BBX 5 9 0 0
BITMAP
30
48
00
30
48
D0
E0
D0
60
ENDCHAR

STARTCHAR edieresis
ENCODING 235
SWIDTH 444 0
DWIDTH 5 0
BBX 6 9 0 0
BITMAP
6C
6C
00
30
48
D0
E0
D0
60
ENDCHAR

STARTCHAR igrave
ENCODING 236
SWIDTH 278 0
DWIDTH 3 0
BBX 4 9 0 0
BITMAP
40
30
00
E0
40
40
C0
E0
C0
ENDCHAR

STARTCHAR iacute
ENCODING 237
SWIDTH 278 0
DWIDTH 3 0
BBX 4 9 0 0
BITMAP
30
60
00
E0
40
40
C0
E0
C0
ENDCHAR

STARTCHAR icircumflex
ENCODING 238
SWIDTH 278 0
DWIDTH 3 0
BBX 4 9 0 0
BITMAP
60
90
00
E0
40
40
C0
E0
C0
ENDCHAR

STARTCHAR idieresis
ENCODING 239
SWIDTH 278 0
DWIDTH 3 0
BBX 5 9 0 0
BITMAP
D8
D8
00
E0
40
40
C0
E0
C0
ENDCHAR

STARTCHAR eth
ENCODING 240
SWIDTH 500 0
DWIDTH 6 0
BBX 5 9 0 0
BITMAP
28
30
08
38
48
C8
D8
90
60
ENDCHAR

STARTCHAR ntilde
ENCODING 241
SWIDTH 556 0
DWIDTH 7 0
BBX 6 9 0 0
BITMAP
3C
2C
00
EC
7C
68
58
DC
D8
ENDCHAR

STARTCHAR ograve
ENCODING 242
SWIDTH 500 0
DWIDTH 6 0
BBX 5 9 0 0
BITMAP
20
18
00
38
48
C8
D8
90
60
ENDCHAR

STARTCHAR oacute
ENCODING 243
SWIDTH 500 0
DWIDTH 6 0
BBX 6 9 0 0
BITMAP
0C
18
00
38
48
C8
D8
90
60
ENDCHAR

STARTCHAR ocircumflex
ENCODING 244
SWIDTH 500 0
DWIDTH 6 0
BBX 6 9 0 0
BITMAP
18
24
00
38
48
C8
D8
90
60
ENDCHAR

STARTCHAR otilde
ENCODING 245
SWIDTH 500 0
DWIDTH 6 0
BBX 6 9 0 0
BITMAP
3C
2C
00
38
48
C8
D8
90
60
ENDCHAR

STARTCHAR odieresis
ENCODING 246
SWIDTH 500 0
DWIDTH 6 0
BBX 6 9 0 0
BITMAP
6C
6C
00
38
48
C8
D8
90
60
ENDCHAR

STARTCHAR divide
ENCODING 247
SWIDTH 570 0
DWIDTH 7 0
BBX 6 7 0 0
BITMAP
30
30
00
FC
00
30
30
ENDCHAR

STARTCHAR oslash
ENCODING 248
SWIDTH 500 0
DWIDTH 6 0
BBX 5 8 0 -1
BITMAP
08
38
58
E8
F8
D0
E0
80
ENDCHAR

STARTCHAR ugrave
ENCODING 249
SWIDTH 556 0
DWIDTH 7 0
BBX 6 9 1 0
BITMAP
20
18
00
EC
48
58
D8
FC
D8
ENDCHAR

STARTCHAR uacute
ENCODING 250
SWIDTH 556 0
DWIDTH 7 0
BBX 6 9 1 0
BITMAP
0C
18
00
EC
48
58
D8
FC
D8
ENDCHAR

STARTCHAR ucircumflex
ENCODING 251
SWIDTH 556 0
DWIDTH 7 0
BBX 6 9 1 0
BITMAP
18
24
00
EC
48
58
D8
FC
D8
ENDCHAR

STARTCHAR udieresis
ENCODING 252
SWIDTH 556 0
DWIDTH 7 0
BBX 6 9 1 0
BITMAP
6C
6C
00
EC
48
58
D8
FC
D8
ENDCHAR

STARTCHAR yacute
ENCODING 253
SWIDTH 444 0
DWIDTH 5 0
BBX 6 12 0 -3
BITMAP
0C
18
00
6C
34
34
38
38
10
10
A0
C0
ENDCHAR

STARTCHAR thorn
ENCODING 254
SWIDTH 500 0
DWIDTH 6 0
BBX 7 12 0 -3
BITMAP
38
18
10
1C
36
36
24
6C
78
60
40
E0
ENDCHAR

STARTCHAR ydieresis
ENCODING 255
SWIDTH 444 0
DWIDTH 5 0
BBX 7 12 0 -3
BITMAP
36
36
00
6C
34
34
38
38
10
10
A0
C0
ENDCHAR
ENDFONT
